<svg viewBox="0 0 16 16" fill="none" xmlns="http://www.w3.org/2000/svg">
<path d="M6.31579 12H4V3H6.31579V2H8.13158V1H10.4474V2H12.1842V3H13.5V4H14.5V12H12.1842V11H10.4474V10H8.13158V11H6.31579V12Z" class="fill-1" />
<path fill-rule="evenodd" clip-rule="evenodd" d="M3.5 12.5H6.81579V11.5H8.63158V10.5H9.94737V11.5H11.6842V12.5H15V3.5H14V2.5H12.6842V1.5H10.9474V0.5H7.63158V1.5H5.81579V2.5H3.5V12.5ZM6.81579 2.5H8.63158V1.5H9.94737V2.5H11.6842V3.5H13V4.5H14V11.5H12.6842V10.5H10.9474V9.5H7.63158V10.5H5.81579V11.5H4.5V3.5H6.81579V2.5Z" class="fill-5"/>
<path fill-rule="evenodd" clip-rule="evenodd" d="M5.81579 10.5H4V11.5H6.81579V10.5H8.63158V9.5H9.94737V10.5H11.6842V11.5H14V10.5H12.6842V9.5H10.9474V8.5H7.63158V9.5H5.81579V10.5Z" class="fill-4"/>
<path fill-rule="evenodd" clip-rule="evenodd" d="M13 5.5H14V3.5H12.6842V2.5H10.9474V1.5H7.63158V2.5H5.81579V3.5H4V4.5H6.81579V3.5H8.63158V2.5H9.94737V3.5H11.6842V4.5H13V5.5Z" class="fill-2" />
<path d="M1.5 1.5H4.5V3.5H3.5V14.5H2.5V3.5H1.5V1.5Z" class="fill-3" />
<path d="M1.5 0.5H4.5V1.5H1.5V0.5Z" class="fill-5" />
<path d="M0.5 1.5H1.5V3.5H0.5V1.5Z" class="fill-5" />
<path d="M2.5 14.5H3.5V15.5H2.5V14.5Z" class="fill-5" />
<path d="M1.5 3.5H2.5V14.5H1.5V3.5Z" class="fill-5" />
<path d="M3.5 3.5H4.5V14.5H3.5V3.5Z" class="fill-5" />
</svg>
