<svg width="16" height="16" viewBox="0 0 16 16" fill="none" xmlns="http://www.w3.org/2000/svg">
<rect width="16" height="16" fill="#E5E5E5"/>
<g id="gallery" clip-path="url(#clip0)">
<g id="Union">
<path d="M4.5 3.5H2.5V2.5H4.5V3.5Z" fill="black"/>
<path d="M4.5 5.5H5.5V3.5H4.5V5.5Z" fill="black"/>
<path d="M2.5 5.5H4.5V6.5H2.5V5.5Z" fill="black"/>
<path d="M2.5 5.5H1.5V3.5H2.5V5.5Z" fill="black"/>
</g>
<g id="Union_2">
<path d="M10 7H11V8H10V7Z" fill="black"/>
<path d="M9 9V8H10V9H9Z" fill="black"/>
<path d="M8 10V9H9V10H8Z" fill="black"/>
<path d="M7 11V10H8V11H7Z" fill="black"/>
<path d="M6 11H7V12H6V11Z" fill="black"/>
<path d="M5 10H6V11H5V10Z" fill="black"/>
<path d="M4 10V9H5V10H4Z" fill="black"/>
<path d="M3 11V10H4V11H3Z" fill="black"/>
<path d="M2 12V11H3V12H2Z" fill="black"/>
<path d="M1 13V12H2V13H1Z" fill="black"/>
<path d="M0 14V13H1V14H0Z" fill="black"/>
<path d="M-1 15V14H0V15H-1Z" fill="black"/>
<path d="M-1 15V16H-2V15H-1Z" fill="black"/>
<path d="M12 9H11V8H12V9Z" fill="black"/>
<path d="M13 10H12V9H13V10Z" fill="black"/>
<path d="M14 11H13V10H14V11Z" fill="black"/>
<path d="M15 12V11H14V12H15Z" fill="black"/>
<path d="M15 12V13H16V12H15Z" fill="black"/>
</g>
<path id="Vector 19" d="M1 13V14H-0.5V18H17V13H16H15V12H14V11H13V10H12V9H11V8H10V9H9V10H8V11H7V12H6V11H5V10H4V11H3V12H2V13H1Z" fill="#999999"/>
<rect id="Rectangle 4" x="2.5" y="3.5" width="2" height="2" fill="#BBBBBB"/>
</g>
<defs>
<clipPath id="clip0">
<rect width="16" height="16" fill="white"/>
</clipPath>
</defs>
</svg>
